<svg width="1085" height="165" viewBox="0 0 1085 165" fill="none" xmlns="http://www.w3.org/2000/svg">
<path d="M707.242 130.078L705.526 129.922V117.234C707.034 117.026 708.898 116.922 711.116 116.922C712.104 116.922 713.066 116.948 714.002 117C714.938 117.052 715.632 117.104 716.082 117.156L716.732 117.234V129.922C716.16 130.026 715.588 130.078 715.016 130.078L713.3 129.922V119.158H708.958V129.922C708.386 130.026 707.814 130.078 707.242 130.078ZM719.159 125.736V121.29C719.159 119.817 719.593 118.707 720.459 117.962C721.326 117.217 722.747 116.844 724.723 116.844C726.699 116.844 728.121 117.217 728.987 117.962C729.871 118.707 730.313 119.817 730.313 121.29V125.736C730.313 127.209 729.871 128.319 728.987 129.064C728.121 129.809 726.699 130.182 724.723 130.182C722.765 130.182 721.343 129.809 720.459 129.064C719.593 128.319 719.159 127.209 719.159 125.736ZM722.591 121.29V125.736C722.591 126.551 722.747 127.14 723.059 127.504C723.371 127.851 723.926 128.024 724.723 128.024C725.521 128.024 726.075 127.851 726.387 127.504C726.717 127.14 726.881 126.551 726.881 125.736V121.29C726.881 120.458 726.717 119.869 726.387 119.522C726.075 119.175 725.521 119.002 724.723 119.002C723.926 119.002 723.371 119.175 723.059 119.522C722.747 119.869 722.591 120.458 722.591 121.29ZM747.67 117.078V129.922C747.167 130.026 746.656 130.078 746.136 130.078L744.602 129.922V121.108L741.716 128.388C741.265 128.492 740.762 128.544 740.208 128.544L738.648 128.388L735.788 121.108V129.922C735.285 130.026 734.774 130.078 734.254 130.078L732.72 129.922V117.078C733.43 116.974 734.167 116.922 734.93 116.922L737.166 117.078L740.182 125.06L743.25 117.078C743.943 116.974 744.68 116.922 745.46 116.922L747.67 117.078ZM750.11 125.736V121.29C750.11 119.799 750.535 118.69 751.384 117.962C752.251 117.217 753.672 116.844 755.648 116.844C757.659 116.844 759.054 117.208 759.834 117.936C760.614 118.647 761.004 119.765 761.004 121.29V124.332C760.155 124.54 758.907 124.644 757.26 124.644H753.542V125.736C753.542 126.568 753.742 127.157 754.14 127.504C754.539 127.851 755.25 128.024 756.272 128.024C757.018 128.024 757.737 127.955 758.43 127.816C759.141 127.677 759.661 127.547 759.99 127.426C760.32 127.305 760.484 127.235 760.484 127.218L760.51 127.27C760.528 127.305 760.545 127.357 760.562 127.426C760.58 127.495 760.597 127.573 760.614 127.66C760.632 127.729 760.649 127.825 760.666 127.946C760.684 128.067 760.692 128.189 760.692 128.31C760.692 128.501 760.675 128.691 760.64 128.882C760.606 129.055 760.571 129.185 760.536 129.272L760.484 129.376C759.41 129.913 758.006 130.182 756.272 130.182C754.088 130.182 752.511 129.809 751.54 129.064C750.587 128.319 750.11 127.209 750.11 125.736ZM753.542 122.486H757.754V121.29C757.754 120.458 757.598 119.869 757.286 119.522C756.992 119.175 756.446 119.002 755.648 119.002C754.851 119.002 754.296 119.175 753.984 119.522C753.69 119.869 753.542 120.458 753.542 121.29V122.486ZM763.11 125.736V121.29C763.11 119.799 763.535 118.69 764.384 117.962C765.234 117.217 766.638 116.844 768.596 116.844C770.503 116.844 771.829 117.208 772.574 117.936C773.32 118.647 773.692 119.765 773.692 121.29V121.602C773.19 121.706 772.678 121.758 772.158 121.758L770.624 121.602V121.29C770.624 120.458 770.477 119.869 770.182 119.522C769.888 119.175 769.359 119.002 768.596 119.002C767.816 119.002 767.279 119.175 766.984 119.522C766.69 119.869 766.542 120.458 766.542 121.29V125.736C766.542 126.568 766.733 127.157 767.114 127.504C767.513 127.851 768.215 128.024 769.22 128.024C769.931 128.024 770.616 127.955 771.274 127.816C771.933 127.677 772.418 127.547 772.73 127.426C773.042 127.305 773.198 127.235 773.198 127.218L773.224 127.27C773.224 127.305 773.233 127.357 773.25 127.426C773.268 127.495 773.285 127.573 773.302 127.66C773.337 127.729 773.354 127.825 773.354 127.946C773.372 128.067 773.38 128.189 773.38 128.31C773.38 128.501 773.363 128.691 773.328 128.882C773.294 129.055 773.259 129.185 773.224 129.272L773.198 129.376C772.176 129.913 770.85 130.182 769.22 130.182C767.054 130.182 765.494 129.809 764.54 129.064C763.587 128.319 763.11 127.209 763.11 125.736ZM785.773 119.158H782.133V129.922C781.561 130.026 780.989 130.078 780.417 130.078L778.701 129.922V119.158H775.009C774.905 118.881 774.853 118.525 774.853 118.092C774.853 117.901 774.862 117.719 774.879 117.546C774.914 117.355 774.94 117.217 774.957 117.13L775.009 117H785.773C785.877 117.295 785.929 117.659 785.929 118.092C785.929 118.283 785.912 118.465 785.877 118.638C785.86 118.811 785.843 118.941 785.825 119.028L785.773 119.158ZM799.179 117.078V129.922C798.607 130.026 798.035 130.078 797.463 130.078L795.747 129.922V122.226L790.911 129.922C790.408 130.026 789.897 130.078 789.377 130.078L787.843 129.922V117.078C788.415 116.974 788.987 116.922 789.559 116.922L791.275 117.078V124.8L796.111 117.078C796.613 116.974 797.125 116.922 797.645 116.922L799.179 117.078ZM812.002 119.158H808.362V129.922C807.79 130.026 807.218 130.078 806.646 130.078L804.93 129.922V119.158H801.238C801.134 118.881 801.082 118.525 801.082 118.092C801.082 117.901 801.091 117.719 801.108 117.546C801.143 117.355 801.169 117.217 801.186 117.13L801.238 117H812.002C812.106 117.295 812.158 117.659 812.158 118.092C812.158 118.283 812.141 118.465 812.106 118.638C812.089 118.811 812.071 118.941 812.054 119.028L812.002 119.158ZM817.503 117.078V121.81C818.058 121.741 818.725 121.706 819.505 121.706C821.325 121.706 822.634 122.035 823.431 122.694C824.229 123.353 824.627 124.341 824.627 125.658V126.204C824.627 127.504 824.211 128.483 823.379 129.142C822.547 129.801 821.195 130.13 819.323 130.13C818.387 130.13 817.477 130.104 816.593 130.052C815.727 130 815.094 129.948 814.695 129.896L814.071 129.818V117.078C814.643 116.974 815.215 116.922 815.787 116.922L817.503 117.078ZM819.323 123.864H817.503V127.972H819.323C820.017 127.972 820.502 127.842 820.779 127.582C821.057 127.305 821.195 126.845 821.195 126.204V125.658C821.195 125.017 821.057 124.557 820.779 124.28C820.502 124.003 820.017 123.864 819.323 123.864ZM704.384 158.818V146.182C705.805 145.974 707.547 145.87 709.61 145.87C711.499 145.87 712.86 146.182 713.692 146.806C714.541 147.413 714.966 148.314 714.966 149.51V149.822C714.966 151.018 714.376 151.85 713.198 152.318C714.654 152.769 715.382 153.679 715.382 155.048V155.36C715.382 156.608 714.931 157.553 714.03 158.194C713.128 158.818 711.655 159.13 709.61 159.13C708.708 159.13 707.816 159.104 706.932 159.052C706.065 159 705.424 158.948 705.008 158.896L704.384 158.818ZM709.61 153.462H707.816V156.972H709.61C710.459 156.972 711.057 156.842 711.404 156.582C711.768 156.322 711.95 155.915 711.95 155.36V155.048C711.95 154.493 711.776 154.095 711.43 153.852C711.083 153.592 710.476 153.462 709.61 153.462ZM707.816 151.304H709.61C710.303 151.304 710.797 151.183 711.092 150.94C711.386 150.697 711.534 150.325 711.534 149.822V149.51C711.534 149.007 711.386 148.635 711.092 148.392C710.797 148.149 710.303 148.028 709.61 148.028H707.816V151.304ZM730.432 158.922V158.09C730.328 158.177 730.172 158.281 729.964 158.402C729.756 158.523 729.322 158.688 728.664 158.896C728.005 159.087 727.329 159.182 726.636 159.182C725.318 159.182 724.365 158.87 723.776 158.246C723.186 157.622 722.892 156.686 722.892 155.438V155.1C722.892 154.025 723.264 153.193 724.01 152.604C724.755 152.015 725.986 151.616 727.702 151.408L730.432 151.096V150.004C730.432 149.293 730.276 148.782 729.964 148.47C729.669 148.158 729.14 148.002 728.378 148.002C727.632 148.002 727.112 148.149 726.818 148.444C726.523 148.739 726.376 149.233 726.376 149.926V150.186C725.856 150.29 725.318 150.342 724.764 150.342L723.126 150.186V149.926C723.126 148.539 723.507 147.517 724.27 146.858C725.032 146.182 726.402 145.844 728.378 145.844C730.336 145.844 731.74 146.191 732.59 146.884C733.439 147.577 733.864 148.617 733.864 150.004V158.922C733.292 159.026 732.72 159.078 732.148 159.078L730.432 158.922ZM730.432 153.176L728.326 153.462C726.991 153.653 726.324 154.199 726.324 155.1V155.438C726.324 155.993 726.445 156.4 726.688 156.66C726.93 156.903 727.364 157.024 727.988 157.024C728.508 157.024 728.967 156.946 729.366 156.79C729.782 156.634 730.059 156.478 730.198 156.322L730.432 156.088V153.176ZM736.351 158.818V146.182C737.772 145.974 739.514 145.87 741.577 145.87C743.466 145.87 744.827 146.182 745.659 146.806C746.508 147.413 746.933 148.314 746.933 149.51V149.822C746.933 151.018 746.343 151.85 745.165 152.318C746.621 152.769 747.349 153.679 747.349 155.048V155.36C747.349 156.608 746.898 157.553 745.997 158.194C745.095 158.818 743.622 159.13 741.577 159.13C740.675 159.13 739.783 159.104 738.899 159.052C738.032 159 737.391 158.948 736.975 158.896L736.351 158.818ZM741.577 153.462H739.783V156.972H741.577C742.426 156.972 743.024 156.842 743.371 156.582C743.735 156.322 743.917 155.915 743.917 155.36V155.048C743.917 154.493 743.743 154.095 743.397 153.852C743.05 153.592 742.443 153.462 741.577 153.462ZM739.783 151.304H741.577C742.27 151.304 742.764 151.183 743.059 150.94C743.353 150.697 743.501 150.325 743.501 149.822V149.51C743.501 149.007 743.353 148.635 743.059 148.392C742.764 148.149 742.27 148.028 741.577 148.028H739.783V151.304ZM759.266 148.158H755.626V158.922C755.054 159.026 754.482 159.078 753.91 159.078L752.194 158.922V148.158H748.502C748.398 147.881 748.346 147.525 748.346 147.092C748.346 146.901 748.354 146.719 748.372 146.546C748.406 146.355 748.432 146.217 748.45 146.13L748.502 146H759.266C759.37 146.295 759.422 146.659 759.422 147.092C759.422 147.283 759.404 147.465 759.37 147.638C759.352 147.811 759.335 147.941 759.318 148.028L759.266 148.158ZM760.8 154.736V150.29C760.8 148.817 761.233 147.707 762.1 146.962C762.967 146.217 764.388 145.844 766.364 145.844C768.34 145.844 769.761 146.217 770.628 146.962C771.512 147.707 771.954 148.817 771.954 150.29V154.736C771.954 156.209 771.512 157.319 770.628 158.064C769.761 158.809 768.34 159.182 766.364 159.182C764.405 159.182 762.984 158.809 762.1 158.064C761.233 157.319 760.8 156.209 760.8 154.736ZM764.232 150.29V154.736C764.232 155.551 764.388 156.14 764.7 156.504C765.012 156.851 765.567 157.024 766.364 157.024C767.161 157.024 767.716 156.851 768.028 156.504C768.357 156.14 768.522 155.551 768.522 154.736V150.29C768.522 149.458 768.357 148.869 768.028 148.522C767.716 148.175 767.161 148.002 766.364 148.002C765.567 148.002 765.012 148.175 764.7 148.522C764.388 148.869 764.232 149.458 764.232 150.29ZM782.342 158.922L778.884 153.358L777.792 153.644V158.922C777.22 159.026 776.648 159.078 776.076 159.078L774.36 158.922V146.078C774.932 145.974 775.504 145.922 776.076 145.922L777.792 146.078V151.33L778.884 151.07L782.056 146.078C782.663 145.974 783.261 145.922 783.85 145.922L785.54 146.078L781.744 152.188L785.904 158.922C785.332 159.026 784.752 159.078 784.162 159.078L782.342 158.922ZM788.837 154.45L789.799 146.234C791.065 146.026 792.616 145.922 794.453 145.922C795.285 145.922 796.091 145.948 796.871 146C797.651 146.052 798.223 146.104 798.587 146.156L799.133 146.234V158.922C798.561 159.026 797.989 159.078 797.417 159.078L795.701 158.922V148.158H792.685L792.009 154.45C791.836 156.079 791.394 157.275 790.683 158.038C789.973 158.801 788.751 159.182 787.017 159.182C786.913 158.887 786.861 158.523 786.861 158.09C786.861 157.899 786.87 157.717 786.887 157.544C786.922 157.353 786.957 157.215 786.991 157.128L787.017 157.024C787.624 157.024 788.049 156.842 788.291 156.478C788.534 156.097 788.716 155.421 788.837 154.45ZM809.092 158.922V158.09C808.988 158.177 808.832 158.281 808.624 158.402C808.416 158.523 807.983 158.688 807.324 158.896C806.665 159.087 805.989 159.182 805.296 159.182C803.979 159.182 803.025 158.87 802.436 158.246C801.847 157.622 801.552 156.686 801.552 155.438V155.1C801.552 154.025 801.925 153.193 802.67 152.604C803.415 152.015 804.646 151.616 806.362 151.408L809.092 151.096V150.004C809.092 149.293 808.936 148.782 808.624 148.47C808.329 148.158 807.801 148.002 807.038 148.002C806.293 148.002 805.773 148.149 805.478 148.444C805.183 148.739 805.036 149.233 805.036 149.926V150.186C804.516 150.29 803.979 150.342 803.424 150.342L801.786 150.186V149.926C801.786 148.539 802.167 147.517 802.93 146.858C803.693 146.182 805.062 145.844 807.038 145.844C808.997 145.844 810.401 146.191 811.25 146.884C812.099 147.577 812.524 148.617 812.524 150.004V158.922C811.952 159.026 811.38 159.078 810.808 159.078L809.092 158.922ZM809.092 153.176L806.986 153.462C805.651 153.653 804.984 154.199 804.984 155.1V155.438C804.984 155.993 805.105 156.4 805.348 156.66C805.591 156.903 806.024 157.024 806.648 157.024C807.168 157.024 807.627 156.946 808.026 156.79C808.442 156.634 808.719 156.478 808.858 156.322L809.092 156.088V153.176ZM815.011 158.818V146.182C816.432 145.974 818.174 145.87 820.237 145.87C822.126 145.87 823.487 146.182 824.319 146.806C825.168 147.413 825.593 148.314 825.593 149.51V149.822C825.593 151.018 825.003 151.85 823.825 152.318C825.281 152.769 826.009 153.679 826.009 155.048V155.36C826.009 156.608 825.558 157.553 824.657 158.194C823.755 158.818 822.282 159.13 820.237 159.13C819.335 159.13 818.443 159.104 817.559 159.052C816.692 159 816.051 158.948 815.635 158.896L815.011 158.818ZM820.237 153.462H818.443V156.972H820.237C821.086 156.972 821.684 156.842 822.031 156.582C822.395 156.322 822.577 155.915 822.577 155.36V155.048C822.577 154.493 822.403 154.095 822.057 153.852C821.71 153.592 821.103 153.462 820.237 153.462ZM818.443 151.304H820.237C820.93 151.304 821.424 151.183 821.719 150.94C822.013 150.697 822.161 150.325 822.161 149.822V149.51C822.161 149.007 822.013 148.635 821.719 148.392C821.424 148.149 820.93 148.028 820.237 148.028H818.443V151.304Z" fill="white"/>
<path d="M967.464 130.078L965.748 129.922V117.234C967.256 117.026 969.119 116.922 971.338 116.922C972.326 116.922 973.288 116.948 974.224 117C975.16 117.052 975.853 117.104 976.304 117.156L976.954 117.234V129.922C976.382 130.026 975.81 130.078 975.238 130.078L973.522 129.922V119.158H969.18V129.922C968.608 130.026 968.036 130.078 967.464 130.078ZM982.891 117.078V117.91C982.995 117.823 983.142 117.728 983.333 117.624C983.541 117.503 983.957 117.347 984.581 117.156C985.222 116.948 985.872 116.844 986.531 116.844C987.935 116.844 988.94 117.217 989.547 117.962C990.154 118.69 990.457 119.799 990.457 121.29V125.736C990.457 127.209 990.093 128.319 989.365 129.064C988.637 129.809 987.432 130.182 985.751 130.182C985.179 130.182 984.65 130.113 984.165 129.974C983.697 129.835 983.368 129.697 983.177 129.558L982.891 129.35V135.122C982.336 135.226 981.764 135.278 981.175 135.278L979.459 135.122V117.078C980.031 116.974 980.603 116.922 981.175 116.922L982.891 117.078ZM987.025 125.736V121.29C987.025 120.458 986.895 119.869 986.635 119.522C986.392 119.175 985.942 119.002 985.283 119.002C984.78 119.002 984.33 119.08 983.931 119.236C983.532 119.375 983.255 119.522 983.099 119.678L982.891 119.912V125.736C982.891 126.551 983.056 127.14 983.385 127.504C983.732 127.851 984.312 128.024 985.127 128.024C985.838 128.024 986.332 127.851 986.609 127.504C986.886 127.157 987.025 126.568 987.025 125.736ZM1004.2 117.078V129.922C1003.63 130.026 1003.06 130.078 1002.49 130.078L1000.77 129.922V122.226L995.933 129.922C995.431 130.026 994.919 130.078 994.399 130.078L992.865 129.922V117.078C993.437 116.974 994.009 116.922 994.581 116.922L996.297 117.078V124.8L1001.13 117.078C1001.64 116.974 1002.15 116.922 1002.67 116.922L1004.2 117.078ZM1013.85 129.87V125.216H1012.03L1009.64 129.922C1009 130.026 1008.39 130.078 1007.82 130.078L1006.1 129.922L1009.2 124.93C1007.45 124.445 1006.57 123.24 1006.57 121.316V120.822C1006.57 119.522 1006.99 118.551 1007.82 117.91C1008.65 117.251 1010 116.922 1011.88 116.922C1012.81 116.922 1013.73 116.948 1014.63 117C1015.53 117.052 1016.2 117.104 1016.63 117.156L1017.28 117.234V129.87C1016.71 129.991 1016.14 130.052 1015.57 130.052C1015.31 130.052 1015.03 130.035 1014.74 130C1014.46 129.965 1014.24 129.931 1014.09 129.896L1013.85 129.87ZM1011.88 123.058H1013.85V119.08H1011.88C1011.18 119.08 1010.7 119.219 1010.42 119.496C1010.14 119.756 1010 120.198 1010 120.822V121.316C1010 121.94 1010.14 122.391 1010.42 122.668C1010.7 122.928 1011.18 123.058 1011.88 123.058ZM1030.08 119.158H1026.44V129.922C1025.86 130.026 1025.29 130.078 1024.72 130.078L1023 129.922V119.158H1019.31C1019.21 118.881 1019.16 118.525 1019.16 118.092C1019.16 117.901 1019.16 117.719 1019.18 117.546C1019.22 117.355 1019.24 117.217 1019.26 117.13L1019.31 117H1030.08C1030.18 117.295 1030.23 117.659 1030.23 118.092C1030.23 118.283 1030.21 118.465 1030.18 118.638C1030.16 118.811 1030.14 118.941 1030.13 119.028L1030.08 119.158ZM1043.3 117.078V129.922C1042.73 130.026 1042.15 130.078 1041.58 130.078L1039.87 129.922V124.41H1035.58V129.922C1035 130.026 1034.43 130.078 1033.86 130.078L1032.14 129.922V117.078C1032.72 116.974 1033.29 116.922 1033.86 116.922L1035.58 117.078V122.252H1039.87V117.078C1040.44 116.974 1041.01 116.922 1041.58 116.922L1043.3 117.078ZM1045.75 125.736V121.29C1045.75 119.817 1046.19 118.707 1047.05 117.962C1047.92 117.217 1049.34 116.844 1051.32 116.844C1053.29 116.844 1054.71 117.217 1055.58 117.962C1056.46 118.707 1056.91 119.817 1056.91 121.29V125.736C1056.91 127.209 1056.46 128.319 1055.58 129.064C1054.71 129.809 1053.29 130.182 1051.32 130.182C1049.36 130.182 1047.94 129.809 1047.05 129.064C1046.19 128.319 1045.75 127.209 1045.75 125.736ZM1049.18 121.29V125.736C1049.18 126.551 1049.34 127.14 1049.65 127.504C1049.96 127.851 1050.52 128.024 1051.32 128.024C1052.11 128.024 1052.67 127.851 1052.98 127.504C1053.31 127.14 1053.47 126.551 1053.47 125.736V121.29C1053.47 120.458 1053.31 119.869 1052.98 119.522C1052.67 119.175 1052.11 119.002 1051.32 119.002C1050.52 119.002 1049.96 119.175 1049.65 119.522C1049.34 119.869 1049.18 120.458 1049.18 121.29ZM1062.74 119.158V129.922C1062.17 130.026 1061.6 130.078 1061.03 130.078L1059.31 129.922V117.234C1060.79 117.078 1062.63 117 1064.85 117H1067.68C1067.77 117.295 1067.81 117.659 1067.81 118.092L1067.68 119.158H1062.74ZM1069.19 125.736V121.29C1069.19 119.817 1069.62 118.707 1070.49 117.962C1071.35 117.217 1072.78 116.844 1074.75 116.844C1076.73 116.844 1078.15 117.217 1079.02 117.962C1079.9 118.707 1080.34 119.817 1080.34 121.29V125.736C1080.34 127.209 1079.9 128.319 1079.02 129.064C1078.15 129.809 1076.73 130.182 1074.75 130.182C1072.79 130.182 1071.37 129.809 1070.49 129.064C1069.62 128.319 1069.19 127.209 1069.19 125.736ZM1072.62 121.29V125.736C1072.62 126.551 1072.78 127.14 1073.09 127.504C1073.4 127.851 1073.95 128.024 1074.75 128.024C1075.55 128.024 1076.1 127.851 1076.42 127.504C1076.74 127.14 1076.91 126.551 1076.91 125.736V121.29C1076.91 120.458 1076.74 119.869 1076.42 119.522C1076.1 119.175 1075.55 119.002 1074.75 119.002C1073.95 119.002 1073.4 119.175 1073.09 119.522C1072.78 119.869 1072.62 120.458 1072.62 121.29ZM976.206 158.922V158.09C976.102 158.177 975.946 158.281 975.738 158.402C975.53 158.523 975.097 158.688 974.438 158.896C973.779 159.087 973.103 159.182 972.41 159.182C971.093 159.182 970.139 158.87 969.55 158.246C968.961 157.622 968.666 156.686 968.666 155.438V155.1C968.666 154.025 969.039 153.193 969.784 152.604C970.529 152.015 971.76 151.616 973.476 151.408L976.206 151.096V150.004C976.206 149.293 976.05 148.782 975.738 148.47C975.443 148.158 974.915 148.002 974.152 148.002C973.407 148.002 972.887 148.149 972.592 148.444C972.297 148.739 972.15 149.233 972.15 149.926V150.186C971.63 150.29 971.093 150.342 970.538 150.342L968.9 150.186V149.926C968.9 148.539 969.281 147.517 970.044 146.858C970.807 146.182 972.176 145.844 974.152 145.844C976.111 145.844 977.515 146.191 978.364 146.884C979.213 147.577 979.638 148.617 979.638 150.004V158.922C979.066 159.026 978.494 159.078 977.922 159.078L976.206 158.922ZM976.206 153.176L974.1 153.462C972.765 153.653 972.098 154.199 972.098 155.1V155.438C972.098 155.993 972.219 156.4 972.462 156.66C972.705 156.903 973.138 157.024 973.762 157.024C974.282 157.024 974.741 156.946 975.14 156.79C975.556 156.634 975.833 156.478 975.972 156.322L976.206 156.088V153.176ZM983.841 159.078L982.125 158.922V146.234C983.633 146.026 985.496 145.922 987.715 145.922C988.703 145.922 989.665 145.948 990.601 146C991.537 146.052 992.23 146.104 992.681 146.156L993.331 146.234V158.922C992.759 159.026 992.187 159.078 991.615 159.078L989.899 158.922V148.158H985.557V158.922C984.985 159.026 984.413 159.078 983.841 159.078ZM997.552 159.078L995.836 158.922V146.234C997.344 146.026 999.207 145.922 1001.43 145.922C1002.41 145.922 1003.38 145.948 1004.31 146C1005.25 146.052 1005.94 146.104 1006.39 146.156L1007.04 146.234V158.922C1006.47 159.026 1005.9 159.078 1005.33 159.078L1003.61 158.922V148.158H999.268V158.922C998.696 159.026 998.124 159.078 997.552 159.078ZM1009.47 154.736V150.29C1009.47 148.799 1009.89 147.69 1010.74 146.962C1011.61 146.217 1013.03 145.844 1015.01 145.844C1017.02 145.844 1018.41 146.208 1019.19 146.936C1019.97 147.647 1020.36 148.765 1020.36 150.29V153.332C1019.51 153.54 1018.27 153.644 1016.62 153.644H1012.9V154.736C1012.9 155.568 1013.1 156.157 1013.5 156.504C1013.9 156.851 1014.61 157.024 1015.63 157.024C1016.38 157.024 1017.1 156.955 1017.79 156.816C1018.5 156.677 1019.02 156.547 1019.35 156.426C1019.68 156.305 1019.84 156.235 1019.84 156.218L1019.87 156.27C1019.89 156.305 1019.9 156.357 1019.92 156.426C1019.94 156.495 1019.96 156.573 1019.97 156.66C1019.99 156.729 1020.01 156.825 1020.02 156.946C1020.04 157.067 1020.05 157.189 1020.05 157.31C1020.05 157.501 1020.03 157.691 1020 157.882C1019.96 158.055 1019.93 158.185 1019.89 158.272L1019.84 158.376C1018.77 158.913 1017.36 159.182 1015.63 159.182C1013.45 159.182 1011.87 158.809 1010.9 158.064C1009.95 157.319 1009.47 156.209 1009.47 154.736ZM1012.9 151.486H1017.11V150.29C1017.11 149.458 1016.96 148.869 1016.64 148.522C1016.35 148.175 1015.8 148.002 1015.01 148.002C1014.21 148.002 1013.65 148.175 1013.34 148.522C1013.05 148.869 1012.9 149.458 1012.9 150.29V151.486ZM1032.59 148.158H1028.95V158.922C1028.38 159.026 1027.8 159.078 1027.23 159.078L1025.52 158.922V148.158H1021.82C1021.72 147.881 1021.67 147.525 1021.67 147.092C1021.67 146.901 1021.68 146.719 1021.69 146.546C1021.73 146.355 1021.76 146.217 1021.77 146.13L1021.82 146H1032.59C1032.69 146.295 1032.74 146.659 1032.74 147.092C1032.74 147.283 1032.73 147.465 1032.69 147.638C1032.68 147.811 1032.66 147.941 1032.64 148.028L1032.59 148.158ZM1045.99 146.078V158.922C1045.42 159.026 1044.85 159.078 1044.28 159.078L1042.56 158.922V151.226L1037.73 158.922C1037.22 159.026 1036.71 159.078 1036.19 159.078L1034.66 158.922V146.078C1035.23 145.974 1035.8 145.922 1036.37 145.922L1038.09 146.078V153.8L1042.93 146.078C1043.43 145.974 1043.94 145.922 1044.46 145.922L1045.99 146.078ZM1058.82 148.158H1055.18V158.922C1054.61 159.026 1054.03 159.078 1053.46 159.078L1051.75 158.922V148.158H1048.05C1047.95 147.881 1047.9 147.525 1047.9 147.092C1047.9 146.901 1047.91 146.719 1047.92 146.546C1047.96 146.355 1047.98 146.217 1048 146.13L1048.05 146H1058.82C1058.92 146.295 1058.97 146.659 1058.97 147.092C1058.97 147.283 1058.96 147.465 1058.92 147.638C1058.9 147.811 1058.89 147.941 1058.87 148.028L1058.82 148.158ZM1067.89 158.922V158.09C1067.79 158.177 1067.63 158.281 1067.42 158.402C1067.22 158.523 1066.78 158.688 1066.12 158.896C1065.46 159.087 1064.79 159.182 1064.1 159.182C1062.78 159.182 1061.82 158.87 1061.24 158.246C1060.65 157.622 1060.35 156.686 1060.35 155.438V155.1C1060.35 154.025 1060.72 153.193 1061.47 152.604C1062.21 152.015 1063.45 151.616 1065.16 151.408L1067.89 151.096V150.004C1067.89 149.293 1067.74 148.782 1067.42 148.47C1067.13 148.158 1066.6 148.002 1065.84 148.002C1065.09 148.002 1064.57 148.149 1064.28 148.444C1063.98 148.739 1063.84 149.233 1063.84 149.926V150.186C1063.32 150.29 1062.78 150.342 1062.22 150.342L1060.59 150.186V149.926C1060.59 148.539 1060.97 147.517 1061.73 146.858C1062.49 146.182 1063.86 145.844 1065.84 145.844C1067.8 145.844 1069.2 146.191 1070.05 146.884C1070.9 147.577 1071.32 148.617 1071.32 150.004V158.922C1070.75 159.026 1070.18 159.078 1069.61 159.078L1067.89 158.922ZM1067.89 153.176L1065.79 153.462C1064.45 153.653 1063.78 154.199 1063.78 155.1V155.438C1063.78 155.993 1063.9 156.4 1064.15 156.66C1064.39 156.903 1064.82 157.024 1065.45 157.024C1065.97 157.024 1066.43 156.946 1066.83 156.79C1067.24 156.634 1067.52 156.478 1067.66 156.322L1067.89 156.088V153.176ZM1077.27 155.724V158.922C1076.7 159.026 1076.12 159.078 1075.53 159.078L1073.81 158.922V155.724C1074.38 155.62 1074.95 155.568 1075.53 155.568L1077.27 155.724ZM1077.24 140.878V153.358C1076.67 153.462 1076.1 153.514 1075.53 153.514L1073.81 153.358V140.878C1074.38 140.774 1074.95 140.722 1075.53 140.722L1077.24 140.878Z" fill="white"/>
<path d="M468.522 120.718V120.458C468.522 119.227 468.877 118.317 469.588 117.728C470.298 117.139 471.572 116.844 473.41 116.844C475.264 116.844 476.599 117.147 477.414 117.754C478.246 118.361 478.662 119.262 478.662 120.458V120.796C478.662 122.061 478.072 122.937 476.894 123.422C478.332 123.838 479.052 124.713 479.052 126.048V126.412C479.052 127.66 478.566 128.605 477.596 129.246C476.642 129.87 475.082 130.182 472.916 130.182C472.188 130.182 471.486 130.121 470.81 130C470.151 129.861 469.674 129.723 469.38 129.584L468.912 129.376C468.773 129.099 468.704 128.743 468.704 128.31C468.704 128.189 468.712 128.067 468.73 127.946C468.747 127.825 468.764 127.729 468.782 127.66C468.799 127.573 468.816 127.495 468.834 127.426C468.851 127.357 468.868 127.305 468.886 127.27L468.912 127.218C468.912 127.235 469.068 127.305 469.38 127.426C469.692 127.547 470.177 127.677 470.836 127.816C471.494 127.955 472.17 128.024 472.864 128.024C473.886 128.024 474.597 127.894 474.996 127.634C475.412 127.374 475.62 126.967 475.62 126.412V126.048C475.62 125.511 475.438 125.112 475.074 124.852C474.727 124.592 474.129 124.462 473.28 124.462H471.59C471.486 124.202 471.434 123.864 471.434 123.448C471.434 123.257 471.442 123.075 471.46 122.902C471.494 122.729 471.529 122.599 471.564 122.512L471.59 122.408H473.28C473.99 122.408 474.493 122.278 474.788 122.018C475.082 121.758 475.23 121.351 475.23 120.796V120.458C475.23 119.955 475.091 119.591 474.814 119.366C474.536 119.123 474.051 119.002 473.358 119.002C472.664 119.002 472.179 119.115 471.902 119.34C471.624 119.565 471.486 119.938 471.486 120.458V120.718C471 120.822 470.506 120.874 470.004 120.874L468.522 120.718ZM488.473 129.922V129.09C488.369 129.177 488.213 129.281 488.005 129.402C487.797 129.523 487.363 129.688 486.705 129.896C486.046 130.087 485.37 130.182 484.677 130.182C483.359 130.182 482.406 129.87 481.817 129.246C481.227 128.622 480.933 127.686 480.933 126.438V126.1C480.933 125.025 481.305 124.193 482.051 123.604C482.796 123.015 484.027 122.616 485.743 122.408L488.473 122.096V121.004C488.473 120.293 488.317 119.782 488.005 119.47C487.71 119.158 487.181 119.002 486.419 119.002C485.673 119.002 485.153 119.149 484.859 119.444C484.564 119.739 484.417 120.233 484.417 120.926V121.186C483.897 121.29 483.359 121.342 482.805 121.342L481.167 121.186V120.926C481.167 119.539 481.548 118.517 482.311 117.858C483.073 117.182 484.443 116.844 486.419 116.844C488.377 116.844 489.781 117.191 490.631 117.884C491.48 118.577 491.905 119.617 491.905 121.004V129.922C491.333 130.026 490.761 130.078 490.189 130.078L488.473 129.922ZM488.473 124.176L486.367 124.462C485.032 124.653 484.365 125.199 484.365 126.1V126.438C484.365 126.993 484.486 127.4 484.729 127.66C484.971 127.903 485.405 128.024 486.029 128.024C486.549 128.024 487.008 127.946 487.407 127.79C487.823 127.634 488.1 127.478 488.239 127.322L488.473 127.088V124.176ZM502.374 129.922L498.916 124.358L497.824 124.644V129.922C497.252 130.026 496.68 130.078 496.108 130.078L494.392 129.922V117.078C494.964 116.974 495.536 116.922 496.108 116.922L497.824 117.078V122.33L498.916 122.07L502.088 117.078C502.694 116.974 503.292 116.922 503.882 116.922L505.572 117.078L501.776 123.188L505.936 129.922C505.364 130.026 504.783 130.078 504.194 130.078L502.374 129.922ZM514.473 129.922V129.09C514.369 129.177 514.213 129.281 514.005 129.402C513.797 129.523 513.363 129.688 512.705 129.896C512.046 130.087 511.37 130.182 510.677 130.182C509.359 130.182 508.406 129.87 507.817 129.246C507.227 128.622 506.933 127.686 506.933 126.438V126.1C506.933 125.025 507.305 124.193 508.051 123.604C508.796 123.015 510.027 122.616 511.743 122.408L514.473 122.096V121.004C514.473 120.293 514.317 119.782 514.005 119.47C513.71 119.158 513.181 119.002 512.419 119.002C511.673 119.002 511.153 119.149 510.859 119.444C510.564 119.739 510.417 120.233 510.417 120.926V121.186C509.897 121.29 509.359 121.342 508.805 121.342L507.167 121.186V120.926C507.167 119.539 507.548 118.517 508.311 117.858C509.073 117.182 510.443 116.844 512.419 116.844C514.377 116.844 515.781 117.191 516.631 117.884C517.48 118.577 517.905 119.617 517.905 121.004V129.922C517.333 130.026 516.761 130.078 516.189 130.078L514.473 129.922ZM514.473 124.176L512.367 124.462C511.032 124.653 510.365 125.199 510.365 126.1V126.438C510.365 126.993 510.486 127.4 510.729 127.66C510.971 127.903 511.405 128.024 512.029 128.024C512.549 128.024 513.008 127.946 513.407 127.79C513.823 127.634 514.1 127.478 514.239 127.322L514.473 127.088V124.176ZM530.357 119.158H526.717V129.922C526.145 130.026 525.573 130.078 525.001 130.078L523.285 129.922V119.158H519.593C519.489 118.881 519.437 118.525 519.437 118.092C519.437 117.901 519.446 117.719 519.463 117.546C519.498 117.355 519.524 117.217 519.541 117.13L519.593 117H530.357C530.461 117.295 530.513 117.659 530.513 118.092C530.513 118.283 530.496 118.465 530.461 118.638C530.444 118.811 530.427 118.941 530.409 119.028L530.357 119.158ZM539.432 129.922V129.09C539.328 129.177 539.172 129.281 538.964 129.402C538.756 129.523 538.322 129.688 537.664 129.896C537.005 130.087 536.329 130.182 535.636 130.182C534.318 130.182 533.365 129.87 532.776 129.246C532.186 128.622 531.892 127.686 531.892 126.438V126.1C531.892 125.025 532.264 124.193 533.01 123.604C533.755 123.015 534.986 122.616 536.702 122.408L539.432 122.096V121.004C539.432 120.293 539.276 119.782 538.964 119.47C538.669 119.158 538.14 119.002 537.378 119.002C536.632 119.002 536.112 119.149 535.818 119.444C535.523 119.739 535.376 120.233 535.376 120.926V121.186C534.856 121.29 534.318 121.342 533.764 121.342L532.126 121.186V120.926C532.126 119.539 532.507 118.517 533.27 117.858C534.032 117.182 535.402 116.844 537.378 116.844C539.336 116.844 540.74 117.191 541.59 117.884C542.439 118.577 542.864 119.617 542.864 121.004V129.922C542.292 130.026 541.72 130.078 541.148 130.078L539.432 129.922ZM539.432 124.176L537.326 124.462C535.991 124.653 535.324 125.199 535.324 126.1V126.438C535.324 126.993 535.445 127.4 535.688 127.66C535.93 127.903 536.364 128.024 536.988 128.024C537.508 128.024 537.967 127.946 538.366 127.79C538.782 127.634 539.059 127.478 539.198 127.322L539.432 127.088V124.176ZM555.316 119.158H551.676V129.922C551.104 130.026 550.532 130.078 549.96 130.078L548.244 129.922V119.158H544.552C544.448 118.881 544.396 118.525 544.396 118.092C544.396 117.901 544.405 117.719 544.422 117.546C544.457 117.355 544.483 117.217 544.5 117.13L544.552 117H555.316C555.42 117.295 555.472 117.659 555.472 118.092C555.472 118.283 555.455 118.465 555.42 118.638C555.403 118.811 555.386 118.941 555.368 119.028L555.316 119.158ZM560.818 117.078V121.81C561.372 121.741 562.04 121.706 562.82 121.706C564.64 121.706 565.948 122.035 566.746 122.694C567.543 123.353 567.942 124.341 567.942 125.658V126.204C567.942 127.504 567.526 128.483 566.694 129.142C565.862 129.801 564.51 130.13 562.638 130.13C561.702 130.13 560.792 130.104 559.908 130.052C559.041 130 558.408 129.948 558.01 129.896L557.386 129.818V117.078C557.958 116.974 558.53 116.922 559.102 116.922L560.818 117.078ZM562.638 123.864H560.818V127.972H562.638C563.331 127.972 563.816 127.842 564.094 127.582C564.371 127.305 564.51 126.845 564.51 126.204V125.658C564.51 125.017 564.371 124.557 564.094 124.28C563.816 124.003 563.331 123.864 562.638 123.864ZM579.123 117.91C579.227 117.823 579.374 117.728 579.565 117.624C579.773 117.503 580.197 117.347 580.839 117.156C581.48 116.948 582.139 116.844 582.815 116.844C584.219 116.844 585.233 117.217 585.857 117.962C586.481 118.707 586.793 119.817 586.793 121.29V125.736C586.793 127.209 586.351 128.319 585.467 129.064C584.6 129.809 583.187 130.182 581.229 130.182C579.27 130.182 577.857 129.809 576.991 129.064C576.124 128.319 575.691 127.209 575.691 125.736V116.454C575.691 114.963 576.15 113.854 577.069 113.126C578.005 112.381 579.547 112.008 581.697 112.008C582.425 112.008 583.127 111.965 583.803 111.878C584.479 111.791 584.973 111.696 585.285 111.592L585.779 111.462C585.883 111.739 585.935 112.095 585.935 112.528C585.935 112.649 585.926 112.771 585.909 112.892C585.909 113.013 585.9 113.117 585.883 113.204C585.865 113.273 585.848 113.343 585.831 113.412C585.813 113.481 585.805 113.533 585.805 113.568L585.779 113.62L585.285 113.75C584.973 113.837 584.479 113.932 583.803 114.036C583.144 114.123 582.468 114.166 581.775 114.166C580.769 114.166 580.076 114.339 579.695 114.686C579.313 115.033 579.123 115.622 579.123 116.454V117.91ZM579.123 119.912V125.736C579.123 126.551 579.279 127.14 579.591 127.504C579.903 127.851 580.457 128.024 581.255 128.024C582.035 128.024 582.581 127.851 582.893 127.504C583.205 127.14 583.361 126.551 583.361 125.736V121.29C583.361 120.458 583.231 119.869 582.971 119.522C582.711 119.175 582.243 119.002 581.567 119.002C581.047 119.002 580.579 119.08 580.163 119.236C579.764 119.375 579.495 119.522 579.357 119.678L579.123 119.912ZM596.434 129.922V129.09C596.33 129.177 596.174 129.281 595.966 129.402C595.758 129.523 595.324 129.688 594.666 129.896C594.007 130.087 593.331 130.182 592.638 130.182C591.32 130.182 590.367 129.87 589.778 129.246C589.188 128.622 588.894 127.686 588.894 126.438V126.1C588.894 125.025 589.266 124.193 590.012 123.604C590.757 123.015 591.988 122.616 593.704 122.408L596.434 122.096V121.004C596.434 120.293 596.278 119.782 595.966 119.47C595.671 119.158 595.142 119.002 594.38 119.002C593.634 119.002 593.114 119.149 592.82 119.444C592.525 119.739 592.378 120.233 592.378 120.926V121.186C591.858 121.29 591.32 121.342 590.766 121.342L589.128 121.186V120.926C589.128 119.539 589.509 118.517 590.272 117.858C591.034 117.182 592.404 116.844 594.38 116.844C596.338 116.844 597.742 117.191 598.592 117.884C599.441 118.577 599.866 119.617 599.866 121.004V129.922C599.294 130.026 598.722 130.078 598.15 130.078L596.434 129.922ZM596.434 124.176L594.328 124.462C592.993 124.653 592.326 125.199 592.326 126.1V126.438C592.326 126.993 592.447 127.4 592.69 127.66C592.932 127.903 593.366 128.024 593.99 128.024C594.51 128.024 594.969 127.946 595.368 127.79C595.784 127.634 596.061 127.478 596.2 127.322L596.434 127.088V124.176ZM613.506 117.078V129.922C612.934 130.026 612.362 130.078 611.79 130.078L610.074 129.922V124.41H605.784V129.922C605.212 130.026 604.64 130.078 604.068 130.078L602.352 129.922V117.078C602.924 116.974 603.496 116.922 604.068 116.922L605.784 117.078V122.252H610.074V117.078C610.646 116.974 611.218 116.922 611.79 116.922L613.506 117.078ZM624.02 129.922L620.562 124.358L619.47 124.644V129.922C618.898 130.026 618.326 130.078 617.754 130.078L616.038 129.922V117.078C616.61 116.974 617.182 116.922 617.754 116.922L619.47 117.078V122.33L620.562 122.07L623.734 117.078C624.341 116.974 624.939 116.922 625.528 116.922L627.218 117.078L623.422 123.188L627.582 129.922C627.01 130.026 626.429 130.078 625.84 130.078L624.02 129.922ZM640.577 117.078V129.922C640.005 130.026 639.433 130.078 638.861 130.078L637.145 129.922V122.226L632.309 129.922C631.806 130.026 631.295 130.078 630.775 130.078L629.241 129.922V117.078C629.813 116.974 630.385 116.922 630.957 116.922L632.673 117.078V124.8L637.509 117.078C638.012 116.974 638.523 116.922 639.043 116.922L640.577 117.078ZM502.793 158.922L499.335 153.358L498.243 153.644V158.922C497.671 159.026 497.099 159.078 496.527 159.078L494.811 158.922V146.078C495.383 145.974 495.955 145.922 496.527 145.922L498.243 146.078V151.33L499.335 151.07L502.507 146.078C503.113 145.974 503.711 145.922 504.301 145.922L505.991 146.078L502.195 152.188L506.355 158.922C505.783 159.026 505.202 159.078 504.613 159.078L502.793 158.922ZM511.446 146.078V146.91C511.55 146.823 511.697 146.728 511.888 146.624C512.096 146.503 512.512 146.347 513.136 146.156C513.777 145.948 514.427 145.844 515.086 145.844C516.49 145.844 517.495 146.217 518.102 146.962C518.708 147.69 519.012 148.799 519.012 150.29V154.736C519.012 156.209 518.648 157.319 517.92 158.064C517.192 158.809 515.987 159.182 514.306 159.182C513.734 159.182 513.205 159.113 512.72 158.974C512.252 158.835 511.922 158.697 511.732 158.558L511.446 158.35V164.122C510.891 164.226 510.319 164.278 509.73 164.278L508.014 164.122V146.078C508.586 145.974 509.158 145.922 509.73 145.922L511.446 146.078ZM515.58 154.736V150.29C515.58 149.458 515.45 148.869 515.19 148.522C514.947 148.175 514.496 148.002 513.838 148.002C513.335 148.002 512.884 148.08 512.486 148.236C512.087 148.375 511.81 148.522 511.654 148.678L511.446 148.912V154.736C511.446 155.551 511.61 156.14 511.94 156.504C512.286 156.851 512.867 157.024 513.682 157.024C514.392 157.024 514.886 156.851 515.164 156.504C515.441 156.157 515.58 155.568 515.58 154.736ZM524.852 146.078V150.81C525.407 150.741 526.074 150.706 526.854 150.706C528.674 150.706 529.983 151.035 530.78 151.694C531.577 152.353 531.976 153.341 531.976 154.658V155.204C531.976 156.504 531.56 157.483 530.728 158.142C529.896 158.801 528.544 159.13 526.672 159.13C525.736 159.13 524.826 159.104 523.942 159.052C523.075 159 522.443 158.948 522.044 158.896L521.42 158.818V146.078C521.992 145.974 522.564 145.922 523.136 145.922L524.852 146.078ZM526.672 152.864H524.852V156.972H526.672C527.365 156.972 527.851 156.842 528.128 156.582C528.405 156.305 528.544 155.845 528.544 155.204V154.658C528.544 154.017 528.405 153.557 528.128 153.28C527.851 153.003 527.365 152.864 526.672 152.864ZM537.072 146.078V158.922C536.5 159.026 535.928 159.078 535.356 159.078L533.64 158.922V146.078C534.212 145.974 534.784 145.922 535.356 145.922L537.072 146.078ZM555.148 145.922L556.864 146.078V158.766C555.356 158.922 553.493 159 551.274 159H545.19C544.202 159 543.24 158.983 542.304 158.948C541.368 158.913 540.684 158.879 540.25 158.844L539.574 158.766V146.078C540.146 145.974 540.718 145.922 541.29 145.922L543.006 146.078V156.842H546.516V146.078C547.071 145.974 547.643 145.922 548.232 145.922L549.948 146.078V156.842H553.432V146.078C554.004 145.974 554.576 145.922 555.148 145.922ZM567.335 158.922L563.877 153.358L562.785 153.644V158.922C562.213 159.026 561.641 159.078 561.069 159.078L559.353 158.922V146.078C559.925 145.974 560.497 145.922 561.069 145.922L562.785 146.078V151.33L563.877 151.07L567.049 146.078C567.656 145.974 568.254 145.922 568.843 145.922L570.533 146.078L566.737 152.188L570.897 158.922C570.325 159.026 569.745 159.078 569.155 159.078L567.335 158.922ZM579.435 158.922V158.09C579.331 158.177 579.175 158.281 578.967 158.402C578.759 158.523 578.325 158.688 577.667 158.896C577.008 159.087 576.332 159.182 575.639 159.182C574.321 159.182 573.368 158.87 572.779 158.246C572.189 157.622 571.895 156.686 571.895 155.438V155.1C571.895 154.025 572.267 153.193 573.013 152.604C573.758 152.015 574.989 151.616 576.705 151.408L579.435 151.096V150.004C579.435 149.293 579.279 148.782 578.967 148.47C578.672 148.158 578.143 148.002 577.381 148.002C576.635 148.002 576.115 148.149 575.821 148.444C575.526 148.739 575.379 149.233 575.379 149.926V150.186C574.859 150.29 574.321 150.342 573.767 150.342L572.129 150.186V149.926C572.129 148.539 572.51 147.517 573.273 146.858C574.035 146.182 575.405 145.844 577.381 145.844C579.339 145.844 580.743 146.191 581.593 146.884C582.442 147.577 582.867 148.617 582.867 150.004V158.922C582.295 159.026 581.723 159.078 581.151 159.078L579.435 158.922ZM579.435 153.176L577.329 153.462C575.994 153.653 575.327 154.199 575.327 155.1V155.438C575.327 155.993 575.448 156.4 575.691 156.66C575.933 156.903 576.367 157.024 576.991 157.024C577.511 157.024 577.97 156.946 578.369 156.79C578.785 156.634 579.062 156.478 579.201 156.322L579.435 156.088V153.176ZM600.303 146.078V158.922C599.801 159.026 599.289 159.078 598.769 159.078L597.235 158.922V150.108L594.349 157.388C593.899 157.492 593.396 157.544 592.841 157.544L591.281 157.388L588.421 150.108V158.922C587.919 159.026 587.407 159.078 586.887 159.078L585.353 158.922V146.078C586.064 145.974 586.801 145.922 587.563 145.922L589.799 146.078L592.815 154.06L595.883 146.078C596.577 145.974 597.313 145.922 598.093 145.922L600.303 146.078ZM614.158 146.078V158.922C613.586 159.026 613.014 159.078 612.442 159.078L610.726 158.922V151.226L605.89 158.922C605.388 159.026 604.876 159.078 604.356 159.078L602.822 158.922V146.078C603.394 145.974 603.966 145.922 604.538 145.922L606.254 146.078V153.8L611.09 146.078C611.593 145.974 612.104 145.922 612.624 145.922L614.158 146.078Z" fill="white"/>
<path d="M314.809 131.456L315.277 130.026L314.185 129.922L309.947 117.078C310.519 116.974 311.065 116.922 311.585 116.922L313.301 117.078L316.239 127.036L319.177 117.078C319.783 116.974 320.355 116.922 320.893 116.922L322.557 117.078L317.825 131.352C317.391 132.773 316.802 133.796 316.057 134.42C315.311 135.061 314.263 135.382 312.911 135.382C312.616 135.382 312.33 135.356 312.053 135.304C311.793 135.252 311.593 135.2 311.455 135.148L311.273 135.07C311.151 134.81 311.091 134.472 311.091 134.056C311.091 133.883 311.108 133.709 311.143 133.536C311.177 133.363 311.212 133.241 311.247 133.172L311.273 133.042C311.654 133.163 312.183 133.224 312.859 133.224C313.812 133.224 314.462 132.635 314.809 131.456ZM324.086 125.45L325.048 117.234C326.314 117.026 327.865 116.922 329.702 116.922C330.534 116.922 331.34 116.948 332.12 117C332.9 117.052 333.472 117.104 333.836 117.156L334.382 117.234V129.922C333.81 130.026 333.238 130.078 332.666 130.078L330.95 129.922V119.158H327.934L327.258 125.45C327.085 127.079 326.643 128.275 325.932 129.038C325.222 129.801 324 130.182 322.266 130.182C322.162 129.887 322.11 129.523 322.11 129.09C322.11 128.899 322.119 128.717 322.136 128.544C322.171 128.353 322.206 128.215 322.24 128.128L322.266 128.024C322.873 128.024 323.298 127.842 323.54 127.478C323.783 127.097 323.965 126.421 324.086 125.45ZM336.801 125.736V121.29C336.801 119.817 337.234 118.707 338.101 117.962C338.968 117.217 340.389 116.844 342.365 116.844C344.341 116.844 345.762 117.217 346.629 117.962C347.513 118.707 347.955 119.817 347.955 121.29V125.736C347.955 127.209 347.513 128.319 346.629 129.064C345.762 129.809 344.341 130.182 342.365 130.182C340.406 130.182 338.985 129.809 338.101 129.064C337.234 128.319 336.801 127.209 336.801 125.736ZM340.233 121.29V125.736C340.233 126.551 340.389 127.14 340.701 127.504C341.013 127.851 341.568 128.024 342.365 128.024C343.162 128.024 343.717 127.851 344.029 127.504C344.358 127.14 344.523 126.551 344.523 125.736V121.29C344.523 120.458 344.358 119.869 344.029 119.522C343.717 119.175 343.162 119.002 342.365 119.002C341.568 119.002 341.013 119.175 340.701 119.522C340.389 119.869 340.233 120.458 340.233 121.29ZM348.945 129.922L352.377 123.214L349.309 117.078C349.829 116.974 350.384 116.922 350.973 116.922L352.793 117.078L355.263 122.096L356.251 122.46V117.078C356.823 116.974 357.395 116.922 357.967 116.922L359.683 117.078V122.46L360.671 122.096L363.141 117.078C363.765 116.974 364.372 116.922 364.961 116.922L366.625 117.078L363.531 123.214L366.989 129.922C366.435 130.026 365.863 130.078 365.273 130.078L363.453 129.922L360.671 124.41L359.683 124.748V129.922C359.111 130.026 358.539 130.078 357.967 130.078L356.251 129.922V124.748L355.263 124.41L352.481 129.922C351.84 130.026 351.233 130.078 350.661 130.078L348.945 129.922ZM379.979 117.078V129.922C379.407 130.026 378.835 130.078 378.263 130.078L376.547 129.922V122.226L371.711 129.922C371.208 130.026 370.697 130.078 370.177 130.078L368.643 129.922V117.078C369.215 116.974 369.787 116.922 370.359 116.922L372.075 117.078V124.8L376.911 117.078C377.413 116.974 377.925 116.922 378.445 116.922L379.979 117.078ZM392.802 119.158H389.162V129.922C388.59 130.026 388.018 130.078 387.446 130.078L385.73 129.922V119.158H382.038C381.934 118.881 381.882 118.525 381.882 118.092C381.882 117.901 381.89 117.719 381.908 117.546C381.942 117.355 381.968 117.217 381.986 117.13L382.038 117H392.802C392.906 117.295 392.958 117.659 392.958 118.092C392.958 118.283 392.94 118.465 392.906 118.638C392.888 118.811 392.871 118.941 392.854 119.028L392.802 119.158ZM398.303 117.078V121.81C398.858 121.741 399.525 121.706 400.305 121.706C402.125 121.706 403.434 122.035 404.231 122.694C405.028 123.353 405.427 124.341 405.427 125.658V126.204C405.427 127.504 405.011 128.483 404.179 129.142C403.347 129.801 401.995 130.13 400.123 130.13C399.187 130.13 398.277 130.104 397.393 130.052C396.526 130 395.894 129.948 395.495 129.896L394.871 129.818V117.078C395.443 116.974 396.015 116.922 396.587 116.922L398.303 117.078ZM400.123 123.864H398.303V127.972H400.123C400.816 127.972 401.302 127.842 401.579 127.582C401.856 127.305 401.995 126.845 401.995 126.204V125.658C401.995 125.017 401.856 124.557 401.579 124.28C401.302 124.003 400.816 123.864 400.123 123.864ZM316.287 158.818V146.182C317.708 145.974 319.45 145.87 321.513 145.87C323.402 145.87 324.763 146.182 325.595 146.806C326.444 147.413 326.869 148.314 326.869 149.51V149.822C326.869 151.018 326.28 151.85 325.101 152.318C326.557 152.769 327.285 153.679 327.285 155.048V155.36C327.285 156.608 326.834 157.553 325.933 158.194C325.032 158.818 323.558 159.13 321.513 159.13C320.612 159.13 319.719 159.104 318.835 159.052C317.968 159 317.327 158.948 316.911 158.896L316.287 158.818ZM321.513 153.462H319.719V156.972H321.513C322.362 156.972 322.96 156.842 323.307 156.582C323.671 156.322 323.853 155.915 323.853 155.36V155.048C323.853 154.493 323.68 154.095 323.333 153.852C322.986 153.592 322.38 153.462 321.513 153.462ZM319.719 151.304H321.513C322.206 151.304 322.7 151.183 322.995 150.94C323.29 150.697 323.437 150.325 323.437 149.822V149.51C323.437 149.007 323.29 148.635 322.995 148.392C322.7 148.149 322.206 148.028 321.513 148.028H319.719V151.304ZM338.227 146.91C338.331 146.823 338.478 146.728 338.669 146.624C338.877 146.503 339.302 146.347 339.943 146.156C340.584 145.948 341.243 145.844 341.919 145.844C343.323 145.844 344.337 146.217 344.961 146.962C345.585 147.707 345.897 148.817 345.897 150.29V154.736C345.897 156.209 345.455 157.319 344.571 158.064C343.704 158.809 342.292 159.182 340.333 159.182C338.374 159.182 336.962 158.809 336.095 158.064C335.228 157.319 334.795 156.209 334.795 154.736V145.454C334.795 143.963 335.254 142.854 336.173 142.126C337.109 141.381 338.652 141.008 340.801 141.008C341.529 141.008 342.231 140.965 342.907 140.878C343.583 140.791 344.077 140.696 344.389 140.592L344.883 140.462C344.987 140.739 345.039 141.095 345.039 141.528C345.039 141.649 345.03 141.771 345.013 141.892C345.013 142.013 345.004 142.117 344.987 142.204C344.97 142.273 344.952 142.343 344.935 142.412C344.918 142.481 344.909 142.533 344.909 142.568L344.883 142.62L344.389 142.75C344.077 142.837 343.583 142.932 342.907 143.036C342.248 143.123 341.572 143.166 340.879 143.166C339.874 143.166 339.18 143.339 338.799 143.686C338.418 144.033 338.227 144.622 338.227 145.454V146.91ZM338.227 148.912V154.736C338.227 155.551 338.383 156.14 338.695 156.504C339.007 156.851 339.562 157.024 340.359 157.024C341.139 157.024 341.685 156.851 341.997 156.504C342.309 156.14 342.465 155.551 342.465 154.736V150.29C342.465 149.458 342.335 148.869 342.075 148.522C341.815 148.175 341.347 148.002 340.671 148.002C340.151 148.002 339.683 148.08 339.267 148.236C338.868 148.375 338.6 148.522 338.461 148.678L338.227 148.912ZM355.538 158.922V158.09C355.434 158.177 355.278 158.281 355.07 158.402C354.862 158.523 354.429 158.688 353.77 158.896C353.111 159.087 352.435 159.182 351.742 159.182C350.425 159.182 349.471 158.87 348.882 158.246C348.293 157.622 347.998 156.686 347.998 155.438V155.1C347.998 154.025 348.371 153.193 349.116 152.604C349.861 152.015 351.092 151.616 352.808 151.408L355.538 151.096V150.004C355.538 149.293 355.382 148.782 355.07 148.47C354.775 148.158 354.247 148.002 353.484 148.002C352.739 148.002 352.219 148.149 351.924 148.444C351.629 148.739 351.482 149.233 351.482 149.926V150.186C350.962 150.29 350.425 150.342 349.87 150.342L348.232 150.186V149.926C348.232 148.539 348.613 147.517 349.376 146.858C350.139 146.182 351.508 145.844 353.484 145.844C355.443 145.844 356.847 146.191 357.696 146.884C358.545 147.577 358.97 148.617 358.97 150.004V158.922C358.398 159.026 357.826 159.078 357.254 159.078L355.538 158.922ZM355.538 153.176L353.432 153.462C352.097 153.653 351.43 154.199 351.43 155.1V155.438C351.43 155.993 351.551 156.4 351.794 156.66C352.037 156.903 352.47 157.024 353.094 157.024C353.614 157.024 354.073 156.946 354.472 156.79C354.888 156.634 355.165 156.478 355.304 156.322L355.538 156.088V153.176ZM372.611 146.078V158.922C372.039 159.026 371.467 159.078 370.895 159.078L369.179 158.922V153.41H364.889V158.922C364.317 159.026 363.745 159.078 363.173 159.078L361.457 158.922V146.078C362.029 145.974 362.601 145.922 363.173 145.922L364.889 146.078V151.252H369.179V146.078C369.751 145.974 370.323 145.922 370.895 145.922L372.611 146.078ZM383.125 158.922L379.667 153.358L378.575 153.644V158.922C378.003 159.026 377.431 159.078 376.859 159.078L375.143 158.922V146.078C375.715 145.974 376.287 145.922 376.859 145.922L378.575 146.078V151.33L379.667 151.07L382.839 146.078C383.445 145.974 384.043 145.922 384.633 145.922L386.323 146.078L382.527 152.188L386.687 158.922C386.115 159.026 385.534 159.078 384.945 159.078L383.125 158.922ZM399.682 146.078V158.922C399.11 159.026 398.538 159.078 397.966 159.078L396.25 158.922V151.226L391.414 158.922C390.911 159.026 390.4 159.078 389.88 159.078L388.346 158.922V146.078C388.918 145.974 389.49 145.922 390.062 145.922L391.778 146.078V153.8L396.614 146.078C397.116 145.974 397.628 145.922 398.148 145.922L399.682 146.078Z" fill="white"/>
<path d="M20.3497 130.078L18.6337 129.922V117.234C20.1417 117.026 22.0051 116.922 24.2237 116.922C25.2117 116.922 26.1737 116.948 27.1097 117C28.0457 117.052 28.7391 117.104 29.1897 117.156L29.8397 117.234V129.922C29.2677 130.026 28.6957 130.078 28.1237 130.078L26.4077 129.922V119.158H22.0657V129.922C21.4937 130.026 20.9217 130.078 20.3497 130.078ZM32.2667 125.736V121.29C32.2667 119.817 32.7 118.707 33.5667 117.962C34.4333 117.217 35.8547 116.844 37.8307 116.844C39.8067 116.844 41.228 117.217 42.0947 117.962C42.9787 118.707 43.4207 119.817 43.4207 121.29V125.736C43.4207 127.209 42.9787 128.319 42.0947 129.064C41.228 129.809 39.8067 130.182 37.8307 130.182C35.872 130.182 34.4507 129.809 33.5667 129.064C32.7 128.319 32.2667 127.209 32.2667 125.736ZM35.6987 121.29V125.736C35.6987 126.551 35.8547 127.14 36.1667 127.504C36.4787 127.851 37.0333 128.024 37.8307 128.024C38.628 128.024 39.1827 127.851 39.4947 127.504C39.824 127.14 39.9887 126.551 39.9887 125.736V121.29C39.9887 120.458 39.824 119.869 39.4947 119.522C39.1827 119.175 38.628 119.002 37.8307 119.002C37.0333 119.002 36.4787 119.175 36.1667 119.522C35.8547 119.869 35.6987 120.458 35.6987 121.29ZM44.9776 132.938V128.024C45.723 127.955 46.2516 127.721 46.5636 127.322C46.8756 126.906 47.0923 126.247 47.2136 125.346L48.3576 117.234C49.5883 117.026 51.1223 116.922 52.9596 116.922C53.7916 116.922 54.589 116.948 55.3516 117C56.1316 117.052 56.7036 117.104 57.0676 117.156L57.5876 117.234V127.842L59.3556 127.946V132.938C58.8703 133.042 58.385 133.094 57.8996 133.094L56.4696 132.938V130H47.8636V132.938C47.3783 133.042 46.893 133.094 46.4076 133.094L44.9776 132.938ZM51.1656 119.158L50.3596 125.372C50.221 126.464 49.9436 127.287 49.5276 127.842H54.1556V119.158H51.1656ZM64.722 119.158V129.922C64.15 130.026 63.578 130.078 63.006 130.078L61.29 129.922V117.234C62.7633 117.078 64.6093 117 66.828 117H69.662C69.7487 117.295 69.792 117.659 69.792 118.092L69.662 119.158H64.722ZM71.1651 125.736V121.29C71.1651 119.817 71.5985 118.707 72.4651 117.962C73.3318 117.217 74.7531 116.844 76.7291 116.844C78.7051 116.844 80.1265 117.217 80.9931 117.962C81.8771 118.707 82.3191 119.817 82.3191 121.29V125.736C82.3191 127.209 81.8771 128.319 80.9931 129.064C80.1265 129.809 78.7051 130.182 76.7291 130.182C74.7705 130.182 73.3491 129.809 72.4651 129.064C71.5985 128.319 71.1651 127.209 71.1651 125.736ZM74.5971 121.29V125.736C74.5971 126.551 74.7531 127.14 75.0651 127.504C75.3771 127.851 75.9318 128.024 76.7291 128.024C77.5265 128.024 78.0811 127.851 78.3931 127.504C78.7225 127.14 78.8871 126.551 78.8871 125.736V121.29C78.8871 120.458 78.7225 119.869 78.3931 119.522C78.0811 119.175 77.5265 119.002 76.7291 119.002C75.9318 119.002 75.3771 119.175 75.0651 119.522C74.7531 119.869 74.5971 120.458 74.5971 121.29ZM94.5391 119.158H90.8991V129.922C90.3271 130.026 89.7551 130.078 89.1831 130.078L87.4671 129.922V119.158H83.7751C83.6711 118.881 83.6191 118.525 83.6191 118.092C83.6191 117.901 83.6278 117.719 83.6451 117.546C83.6798 117.355 83.7058 117.217 83.7231 117.13L83.7751 117H94.5391C94.6431 117.295 94.6951 117.659 94.6951 118.092C94.6951 118.283 94.6778 118.465 94.6431 118.638C94.6258 118.811 94.6085 118.941 94.5911 119.028L94.5391 119.158ZM96.0733 125.736V121.29C96.0733 119.817 96.5067 118.707 97.3733 117.962C98.24 117.217 99.6613 116.844 101.637 116.844C103.613 116.844 105.035 117.217 105.901 117.962C106.785 118.707 107.227 119.817 107.227 121.29V125.736C107.227 127.209 106.785 128.319 105.901 129.064C105.035 129.809 103.613 130.182 101.637 130.182C99.6787 130.182 98.2573 129.809 97.3733 129.064C96.5067 128.319 96.0733 127.209 96.0733 125.736ZM99.5053 121.29V125.736C99.5053 126.551 99.6613 127.14 99.9733 127.504C100.285 127.851 100.84 128.024 101.637 128.024C102.435 128.024 102.989 127.851 103.301 127.504C103.631 127.14 103.795 126.551 103.795 125.736V121.29C103.795 120.458 103.631 119.869 103.301 119.522C102.989 119.175 102.435 119.002 101.637 119.002C100.84 119.002 100.285 119.175 99.9733 119.522C99.6613 119.869 99.5053 120.458 99.5053 121.29ZM109.634 129.818V117.182C111.055 116.974 112.797 116.87 114.86 116.87C116.749 116.87 118.11 117.182 118.942 117.806C119.791 118.413 120.216 119.314 120.216 120.51V120.822C120.216 122.018 119.626 122.85 118.448 123.318C119.904 123.769 120.632 124.679 120.632 126.048V126.36C120.632 127.608 120.181 128.553 119.28 129.194C118.378 129.818 116.905 130.13 114.86 130.13C113.958 130.13 113.066 130.104 112.182 130.052C111.315 130 110.674 129.948 110.258 129.896L109.634 129.818ZM114.86 124.462H113.066V127.972H114.86C115.709 127.972 116.307 127.842 116.654 127.582C117.018 127.322 117.2 126.915 117.2 126.36V126.048C117.2 125.493 117.026 125.095 116.68 124.852C116.333 124.592 115.726 124.462 114.86 124.462ZM113.066 122.304H114.86C115.553 122.304 116.047 122.183 116.342 121.94C116.636 121.697 116.784 121.325 116.784 120.822V120.51C116.784 120.007 116.636 119.635 116.342 119.392C116.047 119.149 115.553 119.028 114.86 119.028H113.066V122.304ZM134.071 117.078V129.922C133.499 130.026 132.927 130.078 132.355 130.078L130.639 129.922V122.226L125.803 129.922C125.301 130.026 124.789 130.078 124.269 130.078L122.735 129.922V117.078C123.307 116.974 123.879 116.922 124.451 116.922L126.167 117.078V124.8L131.003 117.078C131.506 116.974 132.017 116.922 132.537 116.922L134.071 117.078ZM146.895 119.158H143.255V129.922C142.683 130.026 142.111 130.078 141.539 130.078L139.823 129.922V119.158H136.131C136.027 118.881 135.975 118.525 135.975 118.092C135.975 117.901 135.983 117.719 136.001 117.546C136.035 117.355 136.061 117.217 136.079 117.13L136.131 117H146.895C146.999 117.295 147.051 117.659 147.051 118.092C147.051 118.283 147.033 118.465 146.999 118.638C146.981 118.811 146.964 118.941 146.947 119.028L146.895 119.158ZM152.396 117.078V121.81C152.95 121.741 153.618 121.706 154.398 121.706C156.218 121.706 157.526 122.035 158.324 122.694C159.121 123.353 159.52 124.341 159.52 125.658V126.204C159.52 127.504 159.104 128.483 158.272 129.142C157.44 129.801 156.088 130.13 154.216 130.13C153.28 130.13 152.37 130.104 151.486 130.052C150.619 130 149.986 129.948 149.588 129.896L148.964 129.818V117.078C149.536 116.974 150.108 116.922 150.68 116.922L152.396 117.078ZM154.216 123.864H152.396V127.972H154.216C154.909 127.972 155.394 127.842 155.672 127.582C155.949 127.305 156.088 126.845 156.088 126.204V125.658C156.088 125.017 155.949 124.557 155.672 124.28C155.394 124.003 154.909 123.864 154.216 123.864ZM35.8253 159.078L34.1093 158.922V146.234C35.6173 146.026 37.4807 145.922 39.6993 145.922C40.6873 145.922 41.6493 145.948 42.5853 146C43.5213 146.052 44.2147 146.104 44.6653 146.156L45.3153 146.234V158.922C44.7433 159.026 44.1713 159.078 43.5993 159.078L41.8833 158.922V148.158H37.5413V158.922C36.9693 159.026 36.3973 159.078 35.8253 159.078ZM51.2523 146.078V146.91C51.3563 146.823 51.5036 146.728 51.6943 146.624C51.9023 146.503 52.3183 146.347 52.9423 146.156C53.5836 145.948 54.2336 145.844 54.8923 145.844C56.2963 145.844 57.3016 146.217 57.9083 146.962C58.5149 147.69 58.8183 148.799 58.8183 150.29V154.736C58.8183 156.209 58.4543 157.319 57.7263 158.064C56.9983 158.809 55.7936 159.182 54.1123 159.182C53.5403 159.182 53.0116 159.113 52.5263 158.974C52.0583 158.835 51.7289 158.697 51.5383 158.558L51.2523 158.35V164.122C50.6976 164.226 50.1256 164.278 49.5363 164.278L47.8203 164.122V146.078C48.3923 145.974 48.9643 145.922 49.5363 145.922L51.2523 146.078ZM55.3863 154.736V150.29C55.3863 149.458 55.2563 148.869 54.9963 148.522C54.7536 148.175 54.3029 148.002 53.6443 148.002C53.1416 148.002 52.6909 148.08 52.2923 148.236C51.8936 148.375 51.6163 148.522 51.4603 148.678L51.2523 148.912V154.736C51.2523 155.551 51.4169 156.14 51.7463 156.504C52.0929 156.851 52.6736 157.024 53.4883 157.024C54.1989 157.024 54.6929 156.851 54.9703 156.504C55.2476 156.157 55.3863 155.568 55.3863 154.736ZM60.92 154.736V150.29C60.92 148.817 61.3533 147.707 62.22 146.962C63.0867 146.217 64.508 145.844 66.484 145.844C68.46 145.844 69.8813 146.217 70.748 146.962C71.632 147.707 72.074 148.817 72.074 150.29V154.736C72.074 156.209 71.632 157.319 70.748 158.064C69.8813 158.809 68.46 159.182 66.484 159.182C64.5253 159.182 63.104 158.809 62.22 158.064C61.3533 157.319 60.92 156.209 60.92 154.736ZM64.352 150.29V154.736C64.352 155.551 64.508 156.14 64.82 156.504C65.132 156.851 65.6867 157.024 66.484 157.024C67.2813 157.024 67.836 156.851 68.148 156.504C68.4773 156.14 68.642 155.551 68.642 154.736V150.29C68.642 149.458 68.4773 148.869 68.148 148.522C67.836 148.175 67.2813 148.002 66.484 148.002C65.6867 148.002 65.132 148.175 64.82 148.522C64.508 148.869 64.352 149.458 64.352 150.29ZM73.631 161.938V157.024C74.3763 156.955 74.905 156.721 75.217 156.322C75.529 155.906 75.7456 155.247 75.867 154.346L77.011 146.234C78.2416 146.026 79.7756 145.922 81.613 145.922C82.445 145.922 83.2423 145.948 84.005 146C84.785 146.052 85.357 146.104 85.721 146.156L86.241 146.234V156.842L88.009 156.946V161.938C87.5236 162.042 87.0383 162.094 86.553 162.094L85.123 161.938V159H76.517V161.938C76.0316 162.042 75.5463 162.094 75.061 162.094L73.631 161.938ZM79.819 148.158L79.013 154.372C78.8743 155.464 78.597 156.287 78.181 156.842H82.809V148.158H79.819ZM93.3398 160.456L93.8078 159.026L92.7158 158.922L88.4778 146.078C89.0498 145.974 89.5958 145.922 90.1158 145.922L91.8318 146.078L94.7698 156.036L97.7078 146.078C98.3144 145.974 98.8864 145.922 99.4238 145.922L101.088 146.078L96.3558 160.352C95.9224 161.773 95.3331 162.796 94.5878 163.42C93.8424 164.061 92.7938 164.382 91.4418 164.382C91.1471 164.382 90.8611 164.356 90.5838 164.304C90.3238 164.252 90.1244 164.2 89.9858 164.148L89.8038 164.07C89.6824 163.81 89.6218 163.472 89.6218 163.056C89.6218 162.883 89.6391 162.709 89.6738 162.536C89.7084 162.363 89.7431 162.241 89.7778 162.172L89.8038 162.042C90.1851 162.163 90.7138 162.224 91.3898 162.224C92.3431 162.224 92.9931 161.635 93.3398 160.456ZM110.646 158.922L107.188 153.358L106.096 153.644V158.922C105.524 159.026 104.952 159.078 104.38 159.078L102.664 158.922V146.078C103.236 145.974 103.808 145.922 104.38 145.922L106.096 146.078V151.33L107.188 151.07L110.36 146.078C110.967 145.974 111.565 145.922 112.154 145.922L113.844 146.078L110.048 152.188L114.208 158.922C113.636 159.026 113.055 159.078 112.466 159.078L110.646 158.922ZM126.163 148.158H122.523V158.922C121.951 159.026 121.379 159.078 120.807 159.078L119.091 158.922V148.158H115.399C115.295 147.881 115.243 147.525 115.243 147.092C115.243 146.901 115.252 146.719 115.269 146.546C115.304 146.355 115.33 146.217 115.347 146.13L115.399 146H126.163C126.267 146.295 126.319 146.659 126.319 147.092C126.319 147.283 126.302 147.465 126.267 147.638C126.25 147.811 126.232 147.941 126.215 148.028L126.163 148.158ZM131.664 146.078V150.81C132.219 150.741 132.886 150.706 133.666 150.706C135.486 150.706 136.795 151.035 137.592 151.694C138.39 152.353 138.788 153.341 138.788 154.658V155.204C138.788 156.504 138.372 157.483 137.54 158.142C136.708 158.801 135.356 159.13 133.484 159.13C132.548 159.13 131.638 159.104 130.754 159.052C129.888 159 129.255 158.948 128.856 158.896L128.232 158.818V146.078C128.804 145.974 129.376 145.922 129.948 145.922L131.664 146.078ZM133.484 152.864H131.664V156.972H133.484C134.178 156.972 134.663 156.842 134.94 156.582C135.218 156.305 135.356 155.845 135.356 155.204V154.658C135.356 154.017 135.218 153.557 134.94 153.28C134.663 153.003 134.178 152.864 133.484 152.864ZM143.884 146.078V158.922C143.312 159.026 142.74 159.078 142.168 159.078L140.452 158.922V146.078C141.024 145.974 141.596 145.922 142.168 145.922L143.884 146.078Z" fill="white"/>
<path d="M73.6 81.211C65.2 81.211 55.7 78.1148 45.2 72.1223C36.8 67.2285 28.1 65.7303 20.5 64.3321C12.7 62.9338 4.7 61.4357 0 56.0424C0.5 77.8152 24.5 68.0275 47.4 81.3109C75.6 97.6904 92.9 88.7016 95.6 69.5256C91 76.9163 83.3 81.211 73.6 81.211ZM24.1 53.0462C31.4 54.2447 39.6 55.5431 47.9 59.9376C56.5 64.432 64.3 66.7291 71 66.7291C76.9 66.7291 81.9 64.8315 85.2 61.236C88.4 57.7403 90.1 52.7466 90.1 46.8539C90.1 28.9763 71 14.3945 47.5 14.3945C21 14.3945 5.8 23.583 5.8 39.6629C5.8 50.0499 13.1 51.2484 24.1 53.0462ZM30.1 23.9825C36.7 23.9825 42.1 28.1773 42.1 33.2709C42.1 38.3645 36.7 42.5593 30.1 42.5593C23.5 42.5593 18.1 38.3645 18.1 33.2709C18.1 28.1773 23.5 23.9825 30.1 23.9825ZM47.4 68.3271C78.1 86.1049 95.9 73.9201 95.9 51.1486C95.9 28.4769 74.2 10 47.4 10C20.6 10 0 19.588 0 42.3596C0 65.0312 24.2 54.8439 47.4 68.3271ZM47.5 12.2971C72.2 12.2971 92.2 27.7778 92.2 46.8539C92.2 53.3458 90.3 58.7391 86.7 62.6342C83 66.6292 77.6 68.7266 71 68.7266C64 68.7266 55.9 66.3296 47 61.6354C39 57.4407 30.9 56.1423 23.8 55.0437C12.6 53.2459 3.8 51.7478 3.8 39.6629C3.8 22.2846 19.7 12.2971 47.5 12.2971ZM36.1 33.2709C36.1 35.7678 33.4 37.8652 30.2 37.8652C26.9 37.8652 24.3 35.7678 24.3 33.2709C24.3 30.774 27 28.6766 30.2 28.6766C33.4 28.6766 36.1 30.6742 36.1 33.2709Z" fill="white"/>
<path d="M169.1 72.1223C166.6 72.1223 164 72.8215 161.7 73.7203L161.2 81.5106C161 83.608 161.7 85.9051 163.3 87.5031C164.7 89.1011 166.8 90 169.1 90C171.4 90 173.3 89.1011 174.9 87.5031C176.5 85.9051 177.2 83.8077 177 81.5106L176.3 73.7203C174 72.8215 171.5 72.1223 169.1 72.1223ZM145.4 65.4307C145.4 60.8364 146.6 56.6417 148.9 53.1461C146.1 52.4469 143.3 51.9476 140.3 51.9476C135.5 51.9476 131.1 53.1461 126.9 54.5443L125.5 73.9201C125.1 78.015 126.7 82.01 129.4 85.0062C132.2 88.0025 136.1 89.8002 140.3 89.8002C144.4 89.8002 148.4 88.0025 151.2 85.0062C153.7 82.4095 155.1 79.0137 155.3 75.3183C154.8 75.3183 154.4 75.5181 153.9 75.5181C151.8 75.618 145.4 74.9188 145.4 65.4307ZM152.5 48.7516C156.7 44.5568 162.5 42.0599 168.9 42.0599C170.8 42.0599 172.6 42.2597 174.4 42.7591C173.7 24.4819 158.7 10 140.4 10C121.4 10 106 25.2809 106 44.1573C106 51.0487 108.1 53.3458 111.6 53.3458C117.8 53.3458 128.3 46.8539 140.3 46.8539C144.6 46.7541 148.8 47.4532 152.5 48.7516ZM169.1 47.3533C159 47.3533 150.8 55.4432 150.8 65.6305C150.8 69.3258 151.9 70.5243 153.8 70.5243C157.1 70.5243 162.6 67.0287 169.1 67.0287C175.4 67.0287 181.1 70.5243 184.4 70.5243C186.3 70.5243 187.4 69.3258 187.4 65.6305C187.2 55.4432 179.1 47.3533 169.1 47.3533Z" fill="white"/>
<path d="M393.8 88.7V23.8C393.8 17.6 388.7 5.6 382.5 5.6V0H333.7V5.5C327.5 5.5 322.4 17.5 322.4 23.7V50V92V92.6C322.4 96.7 327.5 100 333.7 100H382.5C388.7 100 393.8 96.7 393.8 92.6V88.7ZM328.7 23.8C328.7 19.7 332 12.9 334 11.8H340V6.3H376.2V11.8H382.2C384.2 12.9 387.5 19.6 387.5 23.8V50.5C378.6 51.9 376.1 56.1 361.1 56.6C366.5 55.3 370.5 50.4 370.6 44.5C370.6 42 369.9 41.1 368.6 41.1C366.3 41.1 362.5 43.5 358.2 43.5C353.8 43.5 350 41.1 347.8 41.1C346.5 41.1 345.8 41.9 345.8 44.5C345.8 50.4 349.8 55.2 355.2 56.6C342.8 56 340.3 51.6 328.9 50.4L328.7 23.8ZM364.7 29.4L358 33.8L351.3 29.4H354.6V11.7H361.3V29.4H364.7Z" fill="white"/>
<path d="M580.3 48.7488C580.2 48.7488 580.2 48.6487 580.1 48.6487C579.3 43.9439 576 37.3373 572.1 37.3373H574.5V32.2322C574.5 31.1311 573.6 30.2302 572.5 30.2302H536.5C535.4 30.2302 534.5 31.1311 534.5 32.2322V37.3373H536.9C533 37.3373 529.7 44.044 528.9 48.6487C528.8 48.6487 528.8 48.7488 528.7 48.7488V50.4505V51.1512V94.1942V94.5946C528.7 97.5976 532.4 100 536.9 100H572.1C576.6 100 580.3 97.5976 580.3 94.5946V48.7488ZM554.6 47.6477C544.1 47.6477 542 43.4434 534 46.2463C534.9 43.9439 536.2 41.9419 537.1 41.5415H572.1C572.9 41.8418 574.1 43.7438 575 45.946C569 43.8438 566.7 47.6477 554.6 47.6477ZM554.6 27.6276L546.6 23.6236H562.6L554.6 27.6276ZM598.6 8.10811V11.9119C598.6 12.5125 597.9 13.013 597.1 13.013H584.4C583.9 13.013 583.4 12.9129 582.9 12.8128L578.6 12.012H558.6V16.016H573.1C573.9 16.016 574.6 16.7167 574.6 17.5175V21.021H534.6V17.5175C534.6 16.7167 535.3 16.016 536.1 16.016H550.6V4.004H546.6C545.5 4.004 544.6 3.1031 544.6 2.002C544.6 0.900901 545.5 0 546.6 0H562.6C563.7 0 564.6 0.900901 564.6 2.002C564.6 3.1031 563.7 4.004 562.6 4.004H558.6V8.00801H578.6L582.9 7.20721C583.4 7.10711 583.9 7.00701 584.4 7.00701H597.1C597.9 7.00701 598.6 7.50751 598.6 8.10811Z" fill="white"/>
<path d="M811.2 34.965H804.3V30.5694C804.3 29.97 803.8 29.4705 803.2 29.4705H802.1V28.2717L803.2 28.3716V27.7722L802.1 27.6723V27.2727H802.4V26.1738H803.2V25.5744C803.2 25.2747 803 24.975 802.6 24.975H800.4C800.1 24.975 799.8 25.1748 799.8 25.5744V26.1738H800.6V27.2727H800.9V27.5724L779.2 24.975H772.5V22.7772H770.8V17.7822H771.8C772.1 17.7822 772.4 17.4825 772.4 17.1828V16.1838C772.4 15.8841 772.1 15.5844 771.8 15.5844H770.8H768.6V12.2877H769.2V6.69331H768.6L767.5 0H763.1L762 6.69331H761.4V7.79221H759.8V11.0889H761.5V12.1878H762.1V15.4845H759.8H758.8C758.5 15.4845 758.2 15.7842 758.2 16.0839V17.0829C758.2 17.3826 758.5 17.6823 758.8 17.6823H759.8V22.6773H758.1V24.975H751.4L729.8 27.4725V27.1728H730.1V26.0739H730.9V25.4745C730.9 25.1748 730.7 24.8751 730.3 24.8751H728.1C727.8 24.8751 727.5 25.0749 727.5 25.4745V26.0739H728.3V27.1728H728.6V27.5724L727.5 27.6723V28.2717L728.6 28.1718V29.3706H727.5C726.9 29.3706 726.4 29.8701 726.4 30.4695V34.965H719.5C717.2 34.965 715.3 36.8631 715.3 39.1608C715.3 41.4585 717.2 43.3566 719.5 43.3566L726.4 45.6543V100H804.2V45.5544L811.1 43.3566C813.4 43.3566 815.3 41.4585 815.3 39.1608C815.3 36.8631 813.5 34.965 811.2 34.965ZM729.8 28.1718L751.5 27.1728H759.8V29.3706H729.8V28.1718ZM738.1 95.6044C738.4 95.6044 738.7 95.3047 738.7 95.005V94.2058H792.1V95.005C792.1 95.3047 792.4 95.6044 792.7 95.6044H738.1ZM743.9 50.1498C742.8 50.1498 741.9 52.048 741.7 53.3467V53.8462V54.5455V67.6324V67.7323C741.7 68.5315 742.6 69.2308 743.8 69.2308H738.7V48.1518H743.8C743.5 48.1518 743.3 48.4515 743.3 48.7513V50.1498H743.9ZM753.5 48.1518H760.7C760.4 48.1518 760.2 48.4515 760.2 48.7513V50.1498H760.8C759.7 50.1498 758.8 52.048 758.6 53.3467V53.8462V54.5455V67.6324V67.7323C758.6 68.5315 759.5 69.2308 760.7 69.2308H753.5C754.7 69.2308 755.6 68.5315 755.6 67.7323V53.3467C755.4 52.048 754.5 50.1498 753.4 50.1498H754V48.7513C754.1 48.3517 753.8 48.1518 753.5 48.1518ZM777.5 50.1498C776.4 50.1498 775.5 52.048 775.3 53.3467V53.8462V54.2458V67.6324V67.7323C775.3 68.5315 776.2 69.2308 777.4 69.2308H770.5C771.7 69.2308 772.6 68.5315 772.6 67.7323V53.3467C772.4 52.048 771.5 50.1498 770.4 50.1498H771V48.7513C771 48.4515 770.8 48.1518 770.5 48.1518H777.4C777.1 48.1518 776.9 48.4515 776.9 48.7513V50.1498H777.5ZM787.2 48.1518H792V69.2308H787.2C788.4 69.2308 789.3 68.5315 789.3 67.7323V53.3467C789.1 52.048 788.2 50.1498 787.1 50.1498H787.7V48.7513C787.7 48.3517 787.5 48.1518 787.2 48.1518ZM755.5 90.7093V76.3237C755.3 75.025 754.4 73.1269 753.3 73.1269H753.9V71.7283C753.9 71.4286 753.7 71.1289 753.4 71.1289H760.6C760.3 71.1289 760.1 71.4286 760.1 71.7283V73.1269H760.7C759.6 73.1269 758.7 75.025 758.5 76.3237V76.8232V77.2228V90.6094V90.7093C758.5 91.5085 759.4 92.2078 760.6 92.2078H753.4C754.6 92.2078 755.5 91.5085 755.5 90.7093ZM748.5 76.024C745.6 76.024 745.1 74.8252 742.9 75.6244C743.1 75.025 743.5 74.4256 743.7 74.3257H753.2C753.4 74.4256 753.8 74.9251 754 75.5245C752.4 75.025 751.8 76.024 748.5 76.024ZM759.9 75.6244C760.1 75.025 760.5 74.4256 760.7 74.3257H770.2C770.4 74.4256 770.8 74.9251 771 75.5245C769.4 74.9251 768.8 76.024 765.5 76.024C762.6 76.024 762 74.8252 759.9 75.6244ZM760.1 52.6473C760.3 52.0479 760.7 51.4486 760.9 51.3487H770.4C770.6 51.4486 771 51.948 771.2 52.5475C769.6 51.948 769 53.047 765.7 53.047C762.8 53.047 762.2 51.8481 760.1 52.6473ZM772.5 90.7093V76.3237C772.3 75.025 771.4 73.1269 770.3 73.1269H770.9V71.7283C770.9 71.4286 770.7 71.1289 770.4 71.1289H777.3C777 71.1289 776.8 71.4286 776.8 71.7283V73.1269H777.4C776.3 73.1269 775.4 75.025 775.2 76.3237V76.8232V77.2228V90.6094V90.7093C775.2 91.5085 776.1 92.2078 777.3 92.2078H770.4C771.5 92.2078 772.5 91.5085 772.5 90.7093ZM776.6 75.6244C776.8 75.025 777.2 74.4256 777.4 74.3257H786.9C787.1 74.4256 787.5 74.9251 787.7 75.5245C786.1 74.9251 785.5 76.024 782.2 76.024C779.3 76.024 778.7 74.8252 776.6 75.6244ZM789.2 90.7093V76.3237C789 75.025 788.1 73.1269 787 73.1269H787.6V71.7283C787.6 71.4286 787.4 71.1289 787.1 71.1289H792.1V92.2078H787.2C788.2 92.2078 789.2 91.5085 789.2 90.7093ZM787.9 52.5475C786.3 51.948 785.7 53.047 782.4 53.047C779.5 53.047 779 51.8481 776.8 52.6473C777 52.0479 777.4 51.4486 777.6 51.3487H787.1C787.3 51.4486 787.6 51.948 787.9 52.5475ZM760.7 43.5564H757.7C757.3 43.5564 757 43.2567 757 42.8571V36.963C757 36.5634 757.3 36.2637 757.7 36.2637H773.5C773.9 36.2637 774.2 36.5634 774.2 36.963V42.8571C774.2 43.2567 773.9 43.5564 773.5 43.5564H770.5H760.7ZM754.2 52.5475C752.6 51.948 752 53.047 748.7 53.047C745.8 53.047 745.3 51.8481 743.1 52.6473C743.3 52.0479 743.7 51.4486 743.9 51.3487H753.4C753.6 51.4486 753.9 51.948 754.2 52.5475ZM743.6 71.1289C743.3 71.1289 743.1 71.4286 743.1 71.7283V73.1269H743.7C742.6 73.1269 741.7 75.025 741.5 76.3237V76.8232V77.2228V90.6094V90.7093C741.5 91.5085 742.4 92.2078 743.6 92.2078H738.7V71.1289H743.6ZM800 95.6044H794.1C794.4 95.6044 794.7 95.3047 794.7 95.005V94.2058H797.4V92.2078H794.7V71.1289H797.4V69.1309H794.7V48.1518H797.4V46.1538H794.7C795 46.1538 795.4 46.0539 795.6 45.7542L797.5 43.8561C798 43.3566 798 42.5574 797.5 41.958C797 41.3586 796.2 41.4585 795.6 41.958L794.7 42.8571V35.4645C794.7 35.1648 794.4 34.8651 794.1 34.8651H792.7C792.4 34.8651 792.1 35.1648 792.1 35.4645V42.957L791.2 42.0579C790.7 41.5584 789.9 41.5584 789.3 42.0579C788.7 42.5574 788.8 43.3566 789.3 43.956L791.2 45.8541C791.5 46.1538 791.8 46.2537 792.1 46.2537H770.6V44.955H773.6C774.7 44.955 775.6 44.0559 775.6 42.957V36.963C775.6 35.8641 774.7 34.965 773.6 34.965H757.8C756.7 34.965 755.8 35.8641 755.8 36.963V42.8571C755.8 43.956 756.7 44.8551 757.8 44.8551H760.8V46.1538H738.8C739.1 46.1538 739.5 46.0539 739.7 45.7542L741.6 43.8561C742.1 43.3566 742.1 42.5574 741.6 41.958C741.1 41.3586 740.3 41.4585 739.7 41.958L738.8 42.8571V35.4645C738.8 35.1648 738.5 34.8651 738.2 34.8651H736.8C736.5 34.8651 736.2 35.1648 736.2 35.4645V42.957L735.3 42.0579C734.8 41.5584 734 41.5584 733.4 42.0579C732.8 42.5574 732.9 43.3566 733.4 43.956L735.3 45.8541C735.6 46.1538 735.9 46.2537 736.2 46.2537H733.5V48.2518H736.2V69.3307H733.5V71.3287H736.2V92.4076H733.5V94.4056H736.2V95.2048C736.2 95.5045 736.5 95.8042 736.8 95.8042H730.9V33.7662H800.2V95.6044H800ZM800.9 29.3706H770.9V27.1728H779.2L800.9 28.1718V29.3706Z" fill="white"/>
<path d="M293.3 60.0361L302.4 50.0361L293.3 40.0361V45.0361V47.0361H207.4V53.0361H293.3V55.0361V60.0361Z" fill="white"/>
<path d="M499.7 60.0361L508.8 50.0361L499.7 40.0361V45.0361V47.0361H413.8V53.0361H499.7V55.0361V60.0361Z" fill="white"/>
<path d="M686.3 60.0361L695.3 50.0361L686.3 40.0361V45.0361V47.0361H600.3V53.0361H686.3V55.0361V60.0361Z" fill="white"/>
<path d="M921.3 60.0361L930.3 50.0361L921.3 40.0361V45.0361V47.0361H835.3V53.0361H921.3V55.0361V60.0361Z" fill="white"/>
<path d="M1024.5 6.53371C1001.8 6.53371 983.3 24.9271 983.3 47.7189C983.3 70.5106 1001.7 88.904 1024.5 88.904C1047.2 88.904 1065.7 70.5106 1065.7 47.7189C1065.7 24.9271 1047.2 6.53371 1024.5 6.53371ZM1024.5 78.9076C1007.3 78.9076 993.3 64.9127 993.3 47.7189C993.3 30.5251 1007.3 16.5301 1024.5 16.5301C1041.7 16.5301 1055.7 30.5251 1055.7 47.7189C1055.7 64.9127 1041.7 78.9076 1024.5 78.9076ZM1047.3 47.7189C1047.3 60.3143 1037 70.6106 1024.4 70.6106C1011.8 70.6106 1001.5 60.3143 1001.5 47.7189C1001.5 35.1234 1011.8 24.8271 1024.4 24.8271C1037 24.8271 1047.3 35.1234 1047.3 47.7189ZM1084.6 92.5027C1084.6 96.7012 1082 100 1078.9 100C1075.7 100 1073.2 96.6012 1073.2 92.5027C1073.2 89.9036 1074.2 67.3118 1075.8 51.2176H1074.2C1072.1 51.2176 1070.4 49.5182 1070.4 47.419V29.0256C1070.4 18.7293 1073.8 8.63296 1080 0.435912C1080.3 0.0360563 1080.8 -0.0639092 1081.3 0.0360548C1081.8 0.235983 1082.1 0.635837 1082.1 1.13566V51.1176C1083.6 67.3118 1084.6 89.8037 1084.6 92.5027ZM980.7 6.23382L982.3 31.8246C982.3 35.8232 980.2 39.2219 977 41.2212C974.9 42.4208 973.8 44.8199 974.1 47.219C975.9 63.3132 977.1 89.6038 977.1 92.5027C977.1 96.7012 974.5 100 971.4 100C968.2 100 965.7 96.6012 965.7 92.5027C965.7 89.6038 966.9 63.3132 968.7 47.219C969 44.8199 967.8 42.5207 965.8 41.2212C962.6 39.3219 960.5 35.8232 960.5 31.8246L962.1 6.23382C962.2 5.23418 963 4.53443 963.9 4.53443C965 4.53443 965.8 5.43411 965.7 6.43375L964.7 27.0263C964.7 28.2259 965.6 29.1256 966.8 29.1256C968 29.1256 968.9 28.2259 968.9 27.0263L969.4 6.43375C969.4 5.33415 970.3 4.43447 971.4 4.43447C972.5 4.43447 973.4 5.33415 973.4 6.43375L973.8 27.0263C973.8 28.2259 974.7 29.1256 975.9 29.1256C977.1 29.1256 978 28.2259 978 27.0263L977 6.43375C976.9 5.33415 977.8 4.53443 978.8 4.53443C979.8 4.53443 980.6 5.23418 980.7 6.23382Z" fill="white"/>
</svg>
